<svg viewBox="0 0 800 680" xmlns="http://www.w3.org/2000/svg">
  <defs>
    <radialGradient id="bg" cx="50%" cy="50%" r="50%">
      <stop offset="0%" stop-color="#EF9F27" stop-opacity="0.25"/>
      <stop offset="70%" stop-color="#EF9F27" stop-opacity="0.08"/>
      <stop offset="100%" stop-color="#EF9F27" stop-opacity="0"/>
    </radialGradient>
    <radialGradient id="dot" cx="35%" cy="35%" r="65%">
      <stop offset="0%" stop-color="#FAC775"/>
      <stop offset="100%" stop-color="#BA7517"/>
    </radialGradient>
  </defs>
  <circle cx="400" cy="340" r="200" fill="url(#bg)"/>
  <circle cx="400" cy="340" r="200" fill="none" stroke="#C8862A" stroke-width="1.5" stroke-dasharray="4 7" opacity="0.55"/>
  <polygon points="400,140 446,277 590,278 474,364 518,502 400,418 282,502 326,364 210,278 354,277" fill="#EF9F27" fill-opacity="0.12" stroke="#C8862A" stroke-width="2" stroke-linejoin="round"/>
  <circle cx="400" cy="140" r="18" fill="#EF9F27" opacity="0.12"/>
  <circle cx="400" cy="140" r="10" fill="#EF9F27" opacity="0.22"/>
  <circle cx="400" cy="140" r="6" fill="url(#dot)"/>
  <circle cx="590" cy="278" r="18" fill="#EF9F27" opacity="0.12"/>
  <circle cx="590" cy="278" r="10" fill="#EF9F27" opacity="0.22"/>
  <circle cx="590" cy="278" r="6" fill="url(#dot)"/>
  <circle cx="518" cy="502" r="18" fill="#EF9F27" opacity="0.12"/>
  <circle cx="518" cy="502" r="10" fill="#EF9F27" opacity="0.22"/>
  <circle cx="518" cy="502" r="6" fill="url(#dot)"/>
  <circle cx="282" cy="502" r="18" fill="#EF9F27" opacity="0.12"/>
  <circle cx="282" cy="502" r="10" fill="#EF9F27" opacity="0.22"/>
  <circle cx="282" cy="502" r="6" fill="url(#dot)"/>
  <circle cx="210" cy="278" r="18" fill="#EF9F27" opacity="0.12"/>
  <circle cx="210" cy="278" r="10" fill="#EF9F27" opacity="0.22"/>
  <circle cx="210" cy="278" r="6" fill="url(#dot)"/>
  <text x="400" y="332" font-family="Georgia,serif" font-size="32" fill="#ffffff" text-anchor="middle">GTMstar</text>
  <text x="400" y="68" font-family="Arial,sans-serif" font-size="18" font-weight="700" fill="#EF9F27" text-anchor="middle">01</text>
  <text x="400" y="94" font-family="Arial,sans-serif" font-size="24" font-weight="600" fill="#ffffff" text-anchor="middle">市场机会</text>
  <text x="400" y="118" font-family="Arial,sans-serif" font-size="17" fill="#cccccc" text-anchor="middle">市场有多大？值得进入吗？</text>
  <text x="608" y="246" font-family="Arial,sans-serif" font-size="18" font-weight="700" fill="#EF9F27" text-anchor="start">02</text>
  <text x="608" y="272" font-family="Arial,sans-serif" font-size="24" font-weight="600" fill="#ffffff" text-anchor="start">需求洞察</text>
  <text x="608" y="296" font-family="Arial,sans-serif" font-size="17" fill="#cccccc" text-anchor="start">客户是谁？痛点是什么？</text>
  <text x="534" y="474" font-family="Arial,sans-serif" font-size="18" font-weight="700" fill="#EF9F27" text-anchor="start">03</text>
  <text x="534" y="500" font-family="Arial,sans-serif" font-size="24" font-weight="600" fill="#ffffff" text-anchor="start">产品定位</text>
  <text x="534" y="524" font-family="Arial,sans-serif" font-size="17" fill="#cccccc" text-anchor="start">是否PMF？差异化在哪？</text>
  <text x="266" y="474" font-family="Arial,sans-serif" font-size="18" font-weight="700" fill="#EF9F27" text-anchor="end">04</text>
  <text x="266" y="500" font-family="Arial,sans-serif" font-size="24" font-weight="600" fill="#ffffff" text-anchor="end">营销策略</text>
  <text x="266" y="524" font-family="Arial,sans-serif" font-size="17" fill="#cccccc" text-anchor="end">产品故事如何传播？</text>
  <text x="194" y="246" font-family="Arial,sans-serif" font-size="18" font-weight="700" fill="#EF9F27" text-anchor="end">05</text>
  <text x="194" y="272" font-family="Arial,sans-serif" font-size="24" font-weight="600" fill="#ffffff" text-anchor="end">销售渠道</text>
  <text x="194" y="296" font-family="Arial,sans-serif" font-size="17" fill="#cccccc" text-anchor="end">如何起步？如何增长？</text>
  <text x="400" y="608" font-family="Arial,sans-serif" font-size="18" font-weight="600" fill="#EF9F27" text-anchor="middle" opacity="0.8">数据闭环 · 持续迭代 · 回到市场</text>
</svg>
